# xmcd CD database file
#
# Track frame offsets:
#	150
#	12997
#	24165
#	46560
#	58765
#	73310
#	89802
#	102810
#	116982
#	136442
#	144285
#	162305
#	177202
#	195267
#	213240
#	224600
#	236457
#	254467
#
# Disc length: 3663 seconds
#
# Revision: 0
# Processed by: cddbd v1.5.1PL0 Copyright (c) Steve Scherf et al.
# Submitted via: CDex 1.50beta10
#
DISCID=030e4d12
DTITLE=Speckled Red - The Dirty Dozens
DYEAR=1996
DGENRE=Blues
TTITLE0=The Dirty Dozens
TTITLE1=The Right String But The Wrong Yo-Yo
TTITLE2=If You've Ever Been Down
TTITLE3=Wilkins Street Stomp
TTITLE4=Cow Cow Blues
TTITLE5=Just Blues
TTITLE6=Red's Boogie Woogie
TTITLE7=Going Down Slow
TTITLE8=Highway 61 Blues
TTITLE9=After Dinner Blues
TTITLE10=Cryin' In My Sleep
TTITLE11=Early In The Morning
TTITLE12=Love Is Like A Faucet
TTITLE13=Speckled Red Speaks
TTITLE14=Delmar Blues
TTITLE15=Feel So Good
TTITLE16=The Dirtier Dozen
TTITLE17=The Dirtiest Dozen
EXTD=YEAR: 1996
EXTT0=
EXTT1=
EXTT2=
EXTT3=
EXTT4=
EXTT5=
EXTT6=
EXTT7=
EXTT8=
EXTT9=
EXTT10=
EXTT11=
EXTT12=
EXTT13=
EXTT14=
EXTT15=
EXTT16=
EXTT17=
PLAYORDER=
